<svg width="80" height="14" viewBox="0 0 80 14" fill="none" xmlns="http://www.w3.org/2000/svg">
<g clip-path="url(#clip0_7_688)">
<path d="M55.9776 2.90047C54.7472 2.90047 53.8684 3.28753 53.4371 4.01965L53.2054 4.41412V3.09153H51.2009V11.1498H53.3092V6.356C53.3092 5.21047 53.9848 4.55329 55.1642 4.55329C56.2881 4.55329 56.9324 5.19235 56.9324 6.30824V11.1498H59.0407V5.96153C59.0407 4.046 57.8953 2.90047 55.9776 2.90047ZM45.7566 2.90047C43.2698 2.90047 41.7244 4.32765 41.7244 6.62694V7.75847C41.7244 9.968 43.2832 11.3416 45.7915 11.3416C47.4685 11.3416 48.6443 10.7751 49.3843 9.61224L48.077 8.92129C47.5302 9.59247 46.6577 10.0075 45.7915 10.0075C44.5217 10.0075 43.7629 9.28612 43.7629 8.07718V7.75682H49.6501V6.41941C49.6501 4.27824 48.1217 2.90047 45.7566 2.90047ZM47.7324 6.45318H43.7629V6.26047C43.7629 4.93294 44.4707 4.20165 45.7566 4.20165C46.9942 4.20165 47.7324 4.92306 47.7324 6.132V6.45318ZM79.9687 1.76482V0.223176H72.6801V1.76482H75.2358V9.60894H72.6801V11.1498H79.9687V9.60894H77.413V1.76482H79.9687ZM24.698 0C21.4416 0 19.4183 1.86776 19.4183 4.87365V6.49929C19.4183 9.506 21.4407 11.3729 24.698 11.3729C27.9553 11.3729 29.9776 9.506 29.9776 6.49929V4.87365C29.9767 1.86776 27.9535 0 24.698 0ZM27.7995 6.61047C27.7995 8.60671 26.6693 9.75224 24.698 9.75224C22.7266 9.75224 21.5955 8.60671 21.5955 6.61047V4.76247C21.5955 2.76624 22.7257 1.62071 24.6971 1.62071C26.6685 1.62071 27.7987 2.76624 27.7987 4.76247L27.7995 6.61047ZM36.5969 2.90459C35.4908 2.90459 34.5324 3.32541 34.034 4.032L33.8067 4.35318V3.09153H31.8031V13.9226H33.9105V10.0001L34.1369 10.3081C34.6112 10.9546 35.5374 11.3416 36.6139 11.3416C38.4313 11.3416 40.2649 10.248 40.2649 7.80624V6.43424C40.2649 4.676 39.1347 2.90047 36.596 2.90047L36.5969 2.90459ZM38.1575 7.714C38.1575 9.01271 37.3342 9.81977 36.0098 9.81977C34.7749 9.81977 33.9123 8.96741 33.9123 7.74612V6.53553C33.9123 5.29529 34.7821 4.42976 36.0268 4.42976C37.3423 4.42976 38.1593 5.23682 38.1593 6.53553L38.1575 7.714ZM64.8662 0.227294L60.6112 11.1498H62.7499L63.5642 8.80765H68.4546L68.4626 8.83071L69.268 11.1498H71.4094L67.1508 0.223176L64.8662 0.227294ZM64.0904 7.27012L66.0089 1.74012L67.9087 7.26353L64.0904 7.27012ZM13.9425 5.69734C14.1117 5.22855 14.1702 4.73194 14.1142 4.24068C14.0581 3.74942 13.8888 3.27482 13.6175 2.84859C12.7923 1.52674 11.1338 0.846753 9.51409 1.1662C9.06559 0.707086 8.49372 0.36466 7.85591 0.173313C7.2181 -0.0180347 6.53681 -0.051567 5.88046 0.0760839C5.22412 0.203735 4.61582 0.488075 4.11667 0.900546C3.61752 1.31302 3.24508 1.8391 3.03677 2.42595C2.51085 2.52521 2.01401 2.72664 1.57945 3.01677C1.14489 3.3069 0.782624 3.67905 0.516864 4.10834C-0.317319 5.42805 -0.127968 7.09281 0.985052 8.225C0.815278 8.69358 0.756194 9.19012 0.81175 9.6814C0.867306 10.1727 1.03622 10.6474 1.3072 11.0738C2.13333 12.3961 3.79293 13.076 5.4136 12.7561C5.76993 13.1254 6.20776 13.4204 6.69786 13.6216C7.18796 13.8227 7.71904 13.9253 8.25566 13.9225C9.91579 13.9239 11.3868 12.9376 11.8938 11.4827C12.4196 11.3833 12.9164 11.1818 13.3509 10.8917C13.7855 10.6016 14.1478 10.2295 14.4137 9.80033C15.2378 8.48293 15.0477 6.82714 13.9425 5.69734ZM8.25557 13.0114C7.59289 13.0123 6.95099 12.7986 6.44241 12.4076L6.5319 12.3609L9.54389 10.7609C9.61884 10.7204 9.68108 10.6627 9.72447 10.5934C9.76787 10.5241 9.79093 10.4457 9.79141 10.3657V6.45754L11.0648 7.13547C11.0711 7.13841 11.0765 7.14267 11.0807 7.14791C11.0848 7.15315 11.0876 7.15921 11.0887 7.16561V10.4041C11.0854 11.8428 9.81888 13.0083 8.25557 13.0114ZM2.16599 10.6182C1.83367 10.0901 1.71434 9.47106 1.82899 8.86999L1.91847 8.9194L4.93342 10.5194C5.00802 10.5596 5.09296 10.5809 5.17946 10.5809C5.26596 10.5809 5.3509 10.5596 5.4255 10.5194L9.10845 8.56537V9.91842C9.10809 9.92541 9.10604 9.93224 9.10243 9.9384C9.09882 9.94455 9.09375 9.94989 9.0876 9.954L6.03686 11.5733C4.68116 12.292 2.94917 11.8647 2.16599 10.6182ZM1.3727 4.58047C1.70734 4.04895 2.23554 3.64354 2.8638 3.43601V6.72931C2.86266 6.80888 2.88476 6.88728 2.92778 6.95632C2.97079 7.02536 3.03316 7.08251 3.10836 7.1218L6.77342 9.06764L5.50004 9.74556C5.49315 9.74893 5.48547 9.75069 5.47767 9.75069C5.46987 9.75069 5.46219 9.74893 5.4553 9.74556L2.41056 8.12898C1.05754 7.40732 0.593553 5.81453 1.3727 4.56672V4.58047ZM11.8342 6.81718L8.15722 4.85215L9.42756 4.17702C9.43445 4.17366 9.44213 4.1719 9.44993 4.1719C9.45773 4.1719 9.46541 4.17366 9.4723 4.17702L12.5171 5.79625C12.9826 6.04348 13.3621 6.40748 13.6113 6.84575C13.8605 7.28402 13.969 7.77847 13.9243 8.27139C13.8796 8.76431 13.6835 9.23535 13.3588 9.62953C13.0341 10.0237 12.5943 10.3248 12.0906 10.4975V7.20407C12.088 7.12464 12.063 7.0472 12.018 6.97936C11.9731 6.91152 11.9097 6.85568 11.8342 6.81718ZM13.1016 5.06347L13.0121 5.01406L10.0031 3.40035C9.92808 3.35982 9.84263 3.33845 9.75561 3.33845C9.66859 3.33845 9.58315 3.35982 9.50809 3.40035L5.82809 5.35426V4.0012C5.82734 3.99434 5.8286 3.98741 5.83175 3.98116C5.8349 3.9749 5.83982 3.96953 5.84599 3.96562L8.89073 2.34904C9.3574 2.10163 9.89096 1.98162 10.429 2.00304C10.9671 2.02446 11.4874 2.18644 11.9291 2.47001C12.3708 2.75359 12.7156 3.14705 12.9232 3.60436C13.1309 4.06168 13.1927 4.56395 13.1016 5.05244V5.06347ZM5.13324 7.46208L3.85986 6.78695C3.8535 6.78341 3.84806 6.77862 3.84393 6.77293C3.8398 6.76724 3.83708 6.76078 3.83597 6.75401V3.52372C3.83668 3.02819 3.99066 2.54308 4.27991 2.12512C4.56916 1.70715 4.98172 1.3736 5.46936 1.16346C5.957 0.953327 6.49956 0.875286 7.03362 0.938464C7.56767 1.00164 8.07115 1.20343 8.48519 1.52024L8.3957 1.56693L5.38371 3.16696C5.30875 3.20743 5.24652 3.26514 5.20313 3.33443C5.15973 3.40372 5.13666 3.4822 5.13619 3.56218L5.13324 7.46208ZM5.82514 6.08984L7.46532 5.21986L9.10845 6.08984V7.82979L7.47123 8.69985L5.82818 7.82979L5.82514 6.08984Z" fill="white"/>
</g>
<defs>
<clipPath id="clip0_7_688">
<rect width="80" height="14" fill="white"/>
</clipPath>
</defs>
</svg>
