<svg width="28" height="28" viewBox="0 0 28 28" fill="none" xmlns="http://www.w3.org/2000/svg">
<path d="M14 16.3333C15.9367 16.3333 17.4883 14.77 17.4883 12.8333L17.5 5.83333C17.5 3.89667 15.9367 2.33333 14 2.33333C12.0633 2.33333 10.5 3.89667 10.5 5.83333V12.8333C10.5 14.77 12.0633 16.3333 14 16.3333ZM20.1833 12.8333C20.1833 16.3333 17.22 18.7833 14 18.7833C10.78 18.7833 7.81667 16.3333 7.81667 12.8333H5.83333C5.83333 16.8117 9.00667 20.1017 12.8333 20.6733V24.5H15.1667V20.6733C18.9933 20.1133 22.1667 16.8233 22.1667 12.8333H20.1833Z" fill="white"/>
</svg>
